<svg width="17" height="18" viewBox="0 0 17 18" fill="none" xmlns="http://www.w3.org/2000/svg">
<path d="M4.98438 1.54688H4.8125C4.90703 1.54688 4.98438 1.46953 4.98438 1.375V1.54688H11.5156V1.375C11.5156 1.46953 11.593 1.54688 11.6875 1.54688H11.5156V3.09375H13.0625V1.375C13.0625 0.616602 12.4459 0 11.6875 0H4.8125C4.0541 0 3.4375 0.616602 3.4375 1.375V3.09375H4.98438V1.54688ZM15.8125 3.09375H0.6875C0.307227 3.09375 0 3.40098 0 3.78125V4.46875C0 4.56328 0.0773437 4.64062 0.171875 4.64062H1.46953L2.0002 15.877C2.03457 16.6096 2.64043 17.1875 3.37305 17.1875H13.127C13.8617 17.1875 14.4654 16.6117 14.4998 15.877L15.0305 4.64062H16.3281C16.4227 4.64062 16.5 4.56328 16.5 4.46875V3.78125C16.5 3.40098 16.1928 3.09375 15.8125 3.09375ZM12.9615 15.6406H3.53848L3.01855 4.64062H13.4814L12.9615 15.6406Z" fill="#5D6C7B"/>
</svg>
