<svg viewBox="0 0 20 16.853" xmlns="http://www.w3.org/2000/svg" xmlns:xlink="http://www.w3.org/1999/xlink" width="20.000000" height="16.853027" fill="none" customFrame="#000000">
	<path id="Vector" d="M19.1523 5.68103L15.0031 5.68103L12.6756 0.351613C12.5462 0.0550898 12.2008 -0.080418 11.9042 0.0491523C11.6076 0.178645 11.4722 0.524074 11.6017 0.820637L13.7244 5.68107L6.27564 5.68107L8.3983 0.820637C8.52779 0.524074 8.3924 0.178684 8.09584 0.0491523C7.79932 -0.080418 7.45385 0.0550117 7.32439 0.351613L4.99689 5.68103L0.847715 5.68103C0.304942 5.68103 -0.0978707 6.17239 0.0208793 6.68962L2.20584 16.2064C2.2926 16.5843 2.63611 16.8529 3.03268 16.8529L16.9674 16.8529C17.3639 16.8529 17.7074 16.5843 17.7942 16.2064L19.9792 6.68962C20.0979 6.17243 19.6951 5.68103 19.1523 5.68103ZM5.10713 7.47806C5.02885 7.47806 4.94928 7.46228 4.87291 7.42892C4.57635 7.29943 4.44092 6.95403 4.57045 6.65743L5.01061 5.64954L6.28936 5.64954L5.64436 7.12642C5.54822 7.34669 5.33299 7.47806 5.10713 7.47806ZM7.07033 13.7279C7.07033 14.0515 6.80799 14.3138 6.48439 14.3138C6.1608 14.3138 5.89846 14.0515 5.89846 13.7279L5.89846 9.43103C5.89846 9.10743 6.1608 8.84509 6.48439 8.84509C6.80799 8.84509 7.07033 9.10743 7.07033 9.43103L7.07033 13.7279ZM10.586 13.7279C10.586 14.0515 10.3236 14.3138 10 14.3138C9.67643 14.3138 9.41408 14.0515 9.41408 13.7279L9.41408 9.43103C9.41408 9.10743 9.67643 8.84509 10 8.84509C10.3236 8.84509 10.586 9.10743 10.586 9.43103L10.586 13.7279ZM14.1016 13.7279C14.1016 14.0515 13.8392 14.3138 13.5156 14.3138C13.1921 14.3138 12.9297 14.0515 12.9297 13.7279L12.9297 9.43103C12.9297 9.10743 13.1921 8.84509 13.5156 8.84509C13.8392 8.84509 14.1016 9.10743 14.1016 9.43103L14.1016 13.7279ZM15.1271 7.42892C15.0508 7.46228 14.9712 7.47806 14.8929 7.47806C14.6671 7.47806 14.4518 7.34673 14.3556 7.12646L13.7106 5.64958L14.9894 5.64958L15.4296 6.65747C15.5591 6.95403 15.4237 7.29943 15.1271 7.42892Z" fill="rgb(111,115,238)" fill-rule="nonzero" />
</svg>
