<svg viewBox="0 0 16.8008 15.2002" xmlns="http://www.w3.org/2000/svg" xmlns:xlink="http://www.w3.org/1999/xlink" width="16.800781" height="15.200195" fill="none" customFrame="#000000">
	<path id="Vector" d="M16.3935 3.11494C16.1329 2.50538 15.757 1.95301 15.287 1.48874C14.8167 1.02308 14.2621 0.65303 13.6535 0.398708C13.0224 0.133946 12.3455 -0.00157472 11.6622 1.38048e-05C10.7034 1.38048e-05 9.76806 0.265156 8.95519 0.765979C8.76073 0.885784 8.57598 1.01737 8.40096 1.16075C8.22594 1.01737 8.0412 0.885784 7.84673 0.765979C7.03386 0.265156 6.09848 1.38048e-05 5.13975 1.38048e-05C4.4494 1.38048e-05 3.78043 0.133567 3.14842 0.398708C2.53779 0.65403 1.98745 1.0213 1.5149 1.48874C1.04428 1.95248 0.668339 2.50499 0.40838 3.11494C0.138071 3.74931 0 4.42297 0 5.11627C0 5.77028 0.132237 6.4518 0.394767 7.14509C0.614515 7.72448 0.929551 8.32546 1.3321 8.93234C1.96995 9.89275 2.84699 10.8944 3.93601 11.9098C5.74066 13.5929 7.52781 14.7556 7.60365 14.8028L8.06454 15.1013C8.26872 15.2329 8.53125 15.2329 8.73544 15.1013L9.19633 14.8028C9.27217 14.7537 11.0574 13.5929 12.864 11.9098C13.953 10.8944 14.83 9.89275 15.4679 8.93234C15.8704 8.32546 16.1874 7.72448 16.4052 7.14509C16.6677 6.4518 16.8 5.77028 16.8 5.11627C16.8019 4.42297 16.6639 3.74931 16.3935 3.11494ZM8.40096 13.5478C8.40096 13.5478 1.47795 9.06786 1.47795 5.11627C1.47795 3.11494 3.1173 1.49266 5.13975 1.49266C6.56131 1.49266 7.79423 2.29398 8.40096 3.46453C9.0077 2.29398 10.2406 1.49266 11.6622 1.49266C13.6846 1.49266 15.324 3.11494 15.324 5.11627C15.324 9.06786 8.40096 13.5478 8.40096 13.5478Z" fill="rgb(40,39,57)" fill-rule="nonzero" />
</svg>
