<svg width="14" height="13" viewBox="0 0 14 13" fill="none" xmlns="http://www.w3.org/2000/svg">
<path d="M13.0049 6.17069L7.34479 0.513465L6.96539 0.13407C6.87895 0.048196 6.76205 0 6.6402 0C6.51835 0 6.40145 0.048196 6.315 0.13407L0.275451 6.17069C0.186874 6.25892 0.11687 6.36401 0.0695707 6.47974C0.0222718 6.59547 -0.00136322 6.7195 6.07173e-05 6.84452C0.00592009 7.36014 0.435119 7.77176 0.950744 7.77176H1.5733V12.5428H11.7071V7.77176H12.3428C12.5933 7.77176 12.8292 7.67362 13.0064 7.49637C13.0937 7.40938 13.1628 7.30593 13.2099 7.19203C13.2569 7.07813 13.2808 6.95603 13.2803 6.8328C13.2803 6.58378 13.1822 6.34794 13.0049 6.17069ZM7.46051 11.4881H5.81988V8.49979H7.46051V11.4881ZM10.6524 6.71708V11.4881H8.39801V8.14823C8.39801 7.8245 8.1358 7.56229 7.81207 7.56229H5.46832C5.14459 7.56229 4.88238 7.8245 4.88238 8.14823V11.4881H2.62799V6.71708H1.22174L6.64166 1.30155L6.98004 1.63993L12.0601 6.71708H10.6524Z" fill="#5D6C7B"/>
</svg>
