<svg viewBox="0 0 20 11.9775" xmlns="http://www.w3.org/2000/svg" xmlns:xlink="http://www.w3.org/1999/xlink" width="20.000000" height="11.977539" fill="none" customFrame="#000000">
	<path id="Vector" d="M19.4141 7.25258L18.7766 7.25258L16.7349 2.31418C17.0208 2.27527 17.2413 2.03082 17.2413 1.73426C17.2413 1.41066 16.979 1.14832 16.6554 1.14832L11.6177 1.14832C11.3769 0.479531 10.7363 0 9.98559 0C9.23488 0 8.59422 0.47957 8.3534 1.14832L3.34465 1.14832C3.02105 1.14832 2.75871 1.41066 2.75871 1.73426C2.75871 2.03082 2.97926 2.27527 3.26512 2.31418L1.22344 7.25258L0.585938 7.25258C0.262344 7.25258 0 7.51492 0 7.83852C0 10.1207 1.85668 11.9773 4.13883 11.9773C6.42098 11.9773 8.27766 10.1207 8.27766 7.83852C8.27766 7.51492 8.01531 7.25258 7.69172 7.25258L7.05418 7.25258L5.01504 2.3202L8.3534 2.3202C8.59422 2.98898 9.23484 3.46852 9.98559 3.46852C10.7363 3.46852 11.3769 2.98898 11.6177 2.3202L14.985 2.3202L12.9459 7.25258L12.3083 7.25258C11.9847 7.25258 11.7224 7.51492 11.7224 7.83852C11.7224 10.1207 13.5791 11.9773 15.8612 11.9773C18.1434 11.9773 20 10.1207 20 7.83852C20 7.51492 19.7377 7.25258 19.4141 7.25258ZM4.13883 10.8055C2.70332 10.8055 1.5027 9.78082 1.22996 8.42445L7.0477 8.42445C6.77496 9.78082 5.57434 10.8055 4.13883 10.8055ZM5.78613 7.25258L2.49152 7.25258L4.13883 3.26805L5.78613 7.25258ZM9.98555 2.29664C9.67543 2.29664 9.42316 2.04438 9.42316 1.73426C9.42316 1.42414 9.67543 1.17188 9.98555 1.17188C10.2956 1.17188 10.5479 1.42414 10.5479 1.73426C10.5479 2.04438 10.2957 2.29664 9.98555 2.29664ZM15.8612 3.26805L17.5085 7.25258L14.2139 7.25258L15.8612 3.26805ZM15.8612 10.8055C14.4257 10.8055 13.225 9.78082 12.9523 8.42445L18.77 8.42445C18.4973 9.78082 17.2966 10.8055 15.8612 10.8055Z" fill="rgb(40,39,57)" fill-rule="nonzero" />
	<path id="Vector" d="M18.1985 11.2526C17.533 11.7096 16.7278 11.9773 15.8612 11.9773C14.9946 11.9773 14.1894 11.7096 13.5239 11.2526C13.4532 11.204 13.384 11.1533 13.3166 11.1006C13.189 11.0008 13.0673 10.8937 12.9523 10.78C12.5979 10.4295 12.3063 10.0156 12.0962 9.55691C11.8562 9.03324 11.7224 8.45121 11.7224 7.83852C11.7224 7.53758 11.9493 7.28962 12.2413 7.25637C12.2633 7.25386 12.2857 7.25258 12.3083 7.25258L12.9459 7.25258L13.063 6.96927L13.2902 6.41973L13.3313 6.3202L13.697 5.43561L13.8158 5.14832L14.1151 4.42445L14.2139 4.18545L14.2327 4.1398L14.3317 3.90036L14.5487 3.37558L14.5995 3.25258L14.985 2.3202L11.6177 2.3202C11.3987 2.92839 10.8491 3.38007 10.1867 3.45692C10.1207 3.46458 10.0536 3.46852 9.98559 3.46852C9.92792 3.46852 9.87091 3.46569 9.81468 3.46016C9.13879 3.39373 8.57572 2.93762 8.3534 2.3202L5.01504 2.3202L5.4005 3.25258L5.44761 3.36652L5.66832 3.90038L5.7673 4.1398L5.78613 4.18536L5.88498 4.42445L6.18424 5.14832L6.303 5.43559L6.66872 6.3202L6.72163 6.44819L6.93703 6.96922L7.05418 7.25258L7.69172 7.25258C7.71438 7.25258 7.73674 7.25386 7.75874 7.25637C8.05077 7.28962 8.27766 7.53758 8.27766 7.83852C8.27766 8.45121 8.14383 9.03324 7.90387 9.55691C7.6937 10.0156 7.4021 10.4295 7.0477 10.78C6.93269 10.8937 6.81107 11.0008 6.68348 11.1006C6.61601 11.1533 6.54687 11.204 6.47615 11.2526C5.81063 11.7096 5.0054 11.9773 4.13883 11.9773C3.27225 11.9773 2.46702 11.7096 1.8015 11.2526C1.73079 11.204 1.66165 11.1533 1.59418 11.1006C1.46658 11.0008 1.34496 10.8937 1.22996 10.78C0.470928 10.0293 0 8.98787 0 7.83852C0 7.51492 0.262344 7.25258 0.585938 7.25258L1.22344 7.25258L1.3406 6.96918L1.73025 6.02671L1.97464 5.43557L2.39267 4.42445L2.49152 4.18534L2.60934 3.90038L2.87716 3.25258L3.26512 2.31418C3.163 2.30028 3.06922 2.26015 2.99085 2.20079C2.84983 2.09397 2.75871 1.92488 2.75871 1.73426C2.75871 1.41066 3.02105 1.14832 3.34465 1.14832L8.3534 1.14832C8.38549 1.0592 8.42468 0.973441 8.47029 0.891728C8.76693 0.360269 9.33492 0 9.98559 0C10.6299 0 11.1931 0.353215 11.492 0.876143C11.5414 0.962514 11.5836 1.05352 11.6177 1.14832L16.6554 1.14832C16.979 1.14832 17.2413 1.41066 17.2413 1.73426C17.2413 1.92487 17.1502 2.09396 17.0092 2.20078C16.9309 2.26015 16.8371 2.30028 16.7349 2.31418L17.1229 3.25258L17.3907 3.90039L17.5085 4.18528L17.6074 4.42445L18.0254 5.4356L18.2698 6.02673L18.6594 6.96917L18.7766 7.25258L19.4141 7.25258C19.7377 7.25258 20 7.51492 20 7.83852C20 8.98788 19.5291 10.0293 18.77 10.78C18.655 10.8938 18.5334 11.0008 18.4058 11.1006C18.3384 11.1533 18.2692 11.204 18.1985 11.2526ZM17.2355 10.4676C16.8398 10.6752 16.3918 10.7962 15.9168 10.805C15.8983 10.8053 15.8798 10.8055 15.8612 10.8055C15.8426 10.8055 15.8241 10.8053 15.8056 10.805C15.3306 10.7962 14.8825 10.6752 14.4868 10.4676C13.7072 10.0584 13.1309 9.31253 12.9523 8.42445L18.77 8.42445C18.5915 9.31252 18.0151 10.0584 17.2355 10.4676ZM16.715 7.25258L17.5085 7.25258L17.3913 6.96926L16.6385 5.14832L16.6385 5.14828L16.3393 4.42445L15.8612 3.26805L15.3831 4.42445L15.2155 4.82976L15.0838 5.14832L14.985 5.38735L14.5993 6.3202L14.331 6.96917L14.2139 7.25258L16.715 7.25258ZM3.66074 4.42445L3.36149 5.14828L3.36148 5.14832L2.60868 6.96921L2.49152 7.25258L5.78613 7.25258L5.66897 6.96918L5.40066 6.3202L5.01504 5.38744L4.91618 5.14832L4.78448 4.82977L4.61692 4.42445L4.13883 3.26805L3.66074 4.42445ZM2.95158 8.42445L1.22996 8.42445C1.40853 9.31252 1.98487 10.0584 2.76448 10.4676C3.16015 10.6752 3.60819 10.7962 4.08315 10.805C4.10167 10.8053 4.12023 10.8055 4.13883 10.8055C4.15741 10.8055 4.17595 10.8053 4.19445 10.805C4.66943 10.7962 5.11749 10.6752 5.51318 10.4676C6.29278 10.0584 6.86913 9.31252 7.0477 8.42445L2.95158 8.42445ZM9.42316 1.73426C9.42316 2.04438 9.67543 2.29664 9.98555 2.29664C10.2957 2.29664 10.5479 2.04438 10.5479 1.73426C10.5479 1.42414 10.2956 1.17188 9.98555 1.17188C9.67543 1.17188 9.42316 1.42414 9.42316 1.73426Z" fill="rgb(40,39,57)" fill-rule="evenodd" />
</svg>
